<?xml version="1.0" encoding="utf-8" standalone="no"?>
<!DOCTYPE svg PUBLIC "-//W3C//DTD SVG 1.1//EN"
  "http://www.w3.org/Graphics/SVG/1.1/DTD/svg11.dtd">
<!-- Created with matplotlib (https://matplotlib.org/) -->
<svg height="345.6pt" version="1.1" viewBox="0 0 460.8 345.6" width="460.8pt" xmlns="http://www.w3.org/2000/svg" xmlns:xlink="http://www.w3.org/1999/xlink">
 <metadata>
  <rdf:RDF xmlns:cc="http://creativecommons.org/ns#" xmlns:dc="http://purl.org/dc/elements/1.1/" xmlns:rdf="http://www.w3.org/1999/02/22-rdf-syntax-ns#">
   <cc:Work>
    <dc:type rdf:resource="http://purl.org/dc/dcmitype/StillImage"/>
    <dc:date>2021-06-06T21:43:31.360143</dc:date>
    <dc:format>image/svg+xml</dc:format>
    <dc:creator>
     <cc:Agent>
      <dc:title>Matplotlib v3.3.1, https://matplotlib.org/</dc:title>
     </cc:Agent>
    </dc:creator>
   </cc:Work>
  </rdf:RDF>
 </metadata>
 <defs>
  <style type="text/css">*{stroke-linecap:butt;stroke-linejoin:round;}</style>
 </defs>
 <g id="figure_1">
  <g id="patch_1">
   <path d="M 0 345.6 
L 460.8 345.6 
L 460.8 0 
L 0 0 
z
" style="fill:#ffffff;"/>
  </g>
  <g id="axes_1">
   <g id="patch_2">
    <path d="M 69.12 300.672 
L 414.72 300.672 
L 414.72 41.472 
L 69.12 41.472 
z
" style="fill:#ffffff;"/>
   </g>
   <g id="matplotlib.axis_1">
    <g id="xtick_1">
     <g id="line2d_1">
      <defs>
       <path d="M 0 0 
L 0 3.5 
" id="m9fc0a3dda2" style="stroke:#000000;stroke-width:0.8;"/>
      </defs>
      <g>
       <use style="stroke:#000000;stroke-width:0.8;" x="69.12" xlink:href="#m9fc0a3dda2" y="300.672"/>
      </g>
     </g>
     <g id="text_1">
      <!-- 2.5 -->
      <g transform="translate(59.148239 318.741588)scale(0.16 -0.16)">
       <defs>
        <path d="M 41.703125 15.46875 
L 39.90625 15.46875 
C 38.90625 8.390625 38.09375 7.1875 37.703125 6.59375 
C 37.203125 5.796875 30 5.796875 28.59375 5.796875 
L 9.40625 5.796875 
C 13 9.6875 20 16.765625 28.5 24.9375 
C 34.59375 30.71875 41.703125 37.5 41.703125 47.390625 
C 41.703125 59.1875 32.296875 66 21.796875 66 
C 10.796875 66 4.09375 56.296875 4.09375 47.296875 
C 4.09375 43.390625 7 42.890625 8.203125 42.890625 
C 9.203125 42.890625 12.203125 43.484375 12.203125 46.984375 
C 12.203125 50.09375 9.59375 51 8.203125 51 
C 7.59375 51 7 50.890625 6.59375 50.6875 
C 8.5 59.1875 14.296875 63.390625 20.40625 63.390625 
C 29.09375 63.390625 34.796875 56.5 34.796875 47.390625 
C 34.796875 38.703125 29.703125 31.21875 24 24.734375 
L 4.09375 2.296875 
L 4.09375 0 
L 39.296875 0 
z
" id="CMR17-50"/>
        <path d="M 16.59375 4.09375 
C 16.59375 6.59375 14.59375 8.1875 12.5 8.1875 
C 10.5 8.1875 8.40625 6.59375 8.40625 4.09375 
C 8.40625 1.59375 10.40625 0 12.5 0 
C 14.5 0 16.59375 1.59375 16.59375 4.09375 
z
" id="CMR17-46"/>
        <path d="M 11.40625 58.59375 
C 12.40625 58.1875 16.5 56.890625 20.703125 56.890625 
C 30 56.890625 35.09375 61.890625 38 64.6875 
C 38 65.484375 38 66 37.40625 66 
C 37.296875 66 37.09375 66 36.296875 65.59375 
C 32.796875 64.09375 28.703125 63 23.703125 63 
C 20.703125 63 16.203125 63.359375 11.296875 65.484375 
C 10.203125 66 10 66 9.90625 66 
C 9.40625 66 9.296875 65.890625 9.296875 63.90625 
L 9.296875 34.859375 
C 9.296875 33.015625 9.296875 32.5 10.296875 32.5 
C 10.796875 32.5 11 32.703125 11.5 33.421875 
C 14.703125 38.046875 19.09375 40 24.09375 40 
C 27.59375 40 35.09375 37.734375 35.09375 20.203125 
C 35.09375 16.984375 35.09375 11.1875 32.09375 6.59375 
C 29.59375 2.484375 25.703125 0.390625 21.40625 0.390625 
C 14.796875 0.390625 8.09375 4.984375 6.296875 12.6875 
C 6.703125 12.59375 7.5 12.390625 7.90625 12.390625 
C 9.203125 12.390625 11.703125 13.09375 11.703125 16.1875 
C 11.703125 18.890625 9.796875 20 7.90625 20 
C 5.59375 20 4.09375 18.59375 4.09375 15.796875 
C 4.09375 7.09375 11 -2 21.59375 -2 
C 31.90625 -2 41.703125 6.890625 41.703125 19.796875 
C 41.703125 32.09375 33.90625 41.59375 24.203125 41.59375 
C 19.09375 41.59375 14.796875 39.6875 11.40625 36 
z
" id="CMR17-53"/>
       </defs>
       <use transform="scale(0.996264)" xlink:href="#CMR17-50"/>
       <use transform="translate(45.690477 0)scale(0.996264)" xlink:href="#CMR17-46"/>
       <use transform="translate(70.561536 0)scale(0.996264)" xlink:href="#CMR17-53"/>
      </g>
     </g>
    </g>
    <g id="xtick_2">
     <g id="line2d_2">
      <g>
       <use style="stroke:#000000;stroke-width:0.8;" x="126.72" xlink:href="#m9fc0a3dda2" y="300.672"/>
      </g>
     </g>
     <g id="text_2">
      <!-- 3.0 -->
      <g transform="translate(116.748239 318.741588)scale(0.16 -0.16)">
       <defs>
        <path d="M 22.09375 34 
C 31 34 34.90625 26.140625 34.90625 17.09375 
C 34.90625 5.03125 28.5 0.390625 22.703125 0.390625 
C 17.40625 0.390625 8.796875 3.015625 6.09375 10.796875 
C 6.59375 10.59375 7.09375 10.59375 7.59375 10.59375 
C 10 10.59375 11.796875 12.1875 11.796875 14.796875 
C 11.796875 17.6875 9.59375 19 7.59375 19 
C 5.90625 19 3.296875 18.1875 3.296875 14.484375 
C 3.296875 5.234375 12.296875 -2 22.90625 -2 
C 34 -2 42.5 6.75 42.5 16.984375 
C 42.5 26.84375 34.5 34 25 35.09375 
C 32.59375 36.671875 39.90625 43.375 39.90625 52.390625 
C 39.90625 60.25 32 66 23 66 
C 13.90625 66 5.90625 60.34375 5.90625 52.296875 
C 5.90625 48.796875 8.5 48.1875 9.796875 48.1875 
C 11.90625 48.1875 13.703125 49.484375 13.703125 52.09375 
C 13.703125 54.6875 11.90625 56 9.796875 56 
C 9.40625 56 8.90625 56 8.5 55.796875 
C 11.40625 62.484375 19.296875 63.6875 22.796875 63.6875 
C 26.296875 63.6875 32.90625 61.96875 32.90625 52.296875 
C 32.90625 49.484375 32.5 44.546875 29.09375 40.21875 
C 26.09375 36.390625 22.703125 36.1875 19.40625 35.890625 
C 18.90625 35.890625 16.59375 35.6875 16.203125 35.6875 
C 15.5 35.59375 15.09375 35.5 15.09375 34.796875 
C 15.09375 34.09375 15.203125 34 17.203125 34 
z
" id="CMR17-51"/>
        <path d="M 42 31.84375 
C 42 37.96875 41.90625 48.421875 37.703125 56.453125 
C 34 63.484375 28.09375 66 22.90625 66 
C 18.09375 66 12 63.78125 8.203125 56.5625 
C 4.203125 49.015625 3.796875 39.671875 3.796875 31.84375 
C 3.796875 26.109375 3.90625 17.375 7 9.734375 
C 11.296875 -0.609375 19 -2 22.90625 -2 
C 27.5 -2 34.5 -0.109375 38.59375 9.4375 
C 41.59375 16.375 42 24.5 42 31.84375 
z
M 22.90625 -0.40625 
C 16.5 -0.40625 12.703125 5.125 11.296875 12.75 
C 10.203125 18.6875 10.203125 27.328125 10.203125 32.953125 
C 10.203125 40.6875 10.203125 47.109375 11.5 53.234375 
C 13.40625 61.78125 19 64.390625 22.90625 64.390625 
C 27 64.390625 32.296875 61.671875 34.203125 53.4375 
C 35.5 47.71875 35.59375 40.984375 35.59375 32.953125 
C 35.59375 26.421875 35.59375 18.375 34.40625 12.453125 
C 32.296875 1.5 26.40625 -0.40625 22.90625 -0.40625 
z
" id="CMR17-48"/>
       </defs>
       <use transform="scale(0.996264)" xlink:href="#CMR17-51"/>
       <use transform="translate(45.690477 0)scale(0.996264)" xlink:href="#CMR17-46"/>
       <use transform="translate(70.561536 0)scale(0.996264)" xlink:href="#CMR17-48"/>
      </g>
     </g>
    </g>
    <g id="xtick_3">
     <g id="line2d_3">
      <g>
       <use style="stroke:#000000;stroke-width:0.8;" x="184.32" xlink:href="#m9fc0a3dda2" y="300.672"/>
      </g>
     </g>
     <g id="text_3">
      <!-- 3.5 -->
      <g transform="translate(174.348239 318.741588)scale(0.16 -0.16)">
       <use transform="scale(0.996264)" xlink:href="#CMR17-51"/>
       <use transform="translate(45.690477 0)scale(0.996264)" xlink:href="#CMR17-46"/>
       <use transform="translate(70.561536 0)scale(0.996264)" xlink:href="#CMR17-53"/>
      </g>
     </g>
    </g>
    <g id="xtick_4">
     <g id="line2d_4">
      <g>
       <use style="stroke:#000000;stroke-width:0.8;" x="241.92" xlink:href="#m9fc0a3dda2" y="300.672"/>
      </g>
     </g>
     <g id="text_4">
      <!-- 4.0 -->
      <g transform="translate(231.948239 318.741588)scale(0.16 -0.16)">
       <defs>
        <path d="M 33.59375 64.796875 
C 33.59375 66.890625 33.5 67 31.703125 67 
L 2 19.59375 
L 2 17 
L 27.796875 17 
L 27.796875 7.1875 
C 27.796875 3.59375 27.59375 2.59375 20.59375 2.59375 
L 18.703125 2.59375 
L 18.703125 0 
C 21.90625 0.1875 27.296875 0.1875 30.703125 0.1875 
C 34.09375 0.1875 39.5 0.1875 42.703125 0 
L 42.703125 2.59375 
L 40.796875 2.59375 
C 33.796875 2.59375 33.59375 3.59375 33.59375 7.1875 
L 33.59375 17 
L 43.796875 17 
L 43.796875 19.59375 
L 33.59375 19.59375 
z
M 28.09375 58.171875 
L 28.09375 19.59375 
L 4 19.59375 
z
" id="CMR17-52"/>
       </defs>
       <use transform="scale(0.996264)" xlink:href="#CMR17-52"/>
       <use transform="translate(45.690477 0)scale(0.996264)" xlink:href="#CMR17-46"/>
       <use transform="translate(70.561536 0)scale(0.996264)" xlink:href="#CMR17-48"/>
      </g>
     </g>
    </g>
    <g id="xtick_5">
     <g id="line2d_5">
      <g>
       <use style="stroke:#000000;stroke-width:0.8;" x="299.52" xlink:href="#m9fc0a3dda2" y="300.672"/>
      </g>
     </g>
     <g id="text_5">
      <!-- 4.5 -->
      <g transform="translate(289.548239 318.741588)scale(0.16 -0.16)">
       <use transform="scale(0.996264)" xlink:href="#CMR17-52"/>
       <use transform="translate(45.690477 0)scale(0.996264)" xlink:href="#CMR17-46"/>
       <use transform="translate(70.561536 0)scale(0.996264)" xlink:href="#CMR17-53"/>
      </g>
     </g>
    </g>
    <g id="xtick_6">
     <g id="line2d_6">
      <g>
       <use style="stroke:#000000;stroke-width:0.8;" x="357.12" xlink:href="#m9fc0a3dda2" y="300.672"/>
      </g>
     </g>
     <g id="text_6">
      <!-- 5.0 -->
      <g transform="translate(347.148239 318.741588)scale(0.16 -0.16)">
       <use transform="scale(0.996264)" xlink:href="#CMR17-53"/>
       <use transform="translate(45.690477 0)scale(0.996264)" xlink:href="#CMR17-46"/>
       <use transform="translate(70.561536 0)scale(0.996264)" xlink:href="#CMR17-48"/>
      </g>
     </g>
    </g>
    <g id="xtick_7">
     <g id="line2d_7">
      <g>
       <use style="stroke:#000000;stroke-width:0.8;" x="414.72" xlink:href="#m9fc0a3dda2" y="300.672"/>
      </g>
     </g>
     <g id="text_7">
      <!-- 5.5 -->
      <g transform="translate(404.748239 318.741588)scale(0.16 -0.16)">
       <use transform="scale(0.996264)" xlink:href="#CMR17-53"/>
       <use transform="translate(45.690477 0)scale(0.996264)" xlink:href="#CMR17-46"/>
       <use transform="translate(70.561536 0)scale(0.996264)" xlink:href="#CMR17-53"/>
      </g>
     </g>
    </g>
    <g id="text_8">
     <!-- $r / \mathrm{\AA}$ -->
     <g transform="translate(228.434126 339.728942)scale(0.16 -0.16)">
      <defs>
       <path d="M 38.90625 41.140625 
C 35.796875 40.59375 34.203125 38.390625 34.203125 36.1875 
C 34.203125 33.796875 36.09375 32.984375 37.5 32.984375 
C 40.296875 32.984375 42.59375 35.390625 42.59375 38.390625 
C 42.59375 41.421875 39.5 44 34.5 44 
C 30.5 44 25.90625 42.1875 21.703125 36.484375 
C 21 41.5625 17 44 13 44 
C 9.09375 44 7.09375 41.28125 5.90625 39.1875 
C 4.203125 35.59375 2.703125 29.5625 2.703125 29.0625 
C 2.703125 28.65625 3.09375 28.140625 3.796875 28.140625 
C 4.59375 28.140625 4.703125 28.25 5.296875 30.578125 
C 6.796875 36.59375 8.703125 41.984375 12.703125 41.984375 
C 15.09375 41.984375 15.796875 40.6875 15.796875 37.796875 
C 15.796875 35.59375 14.796875 31.6875 14.09375 28.546875 
L 11.296875 17.65625 
C 10.90625 15.734375 9.796875 11.1875 9.296875 9.375 
C 8.59375 6.75 7.5 2 7.5 1.5 
C 7.5 0.09375 8.59375 -1 10.09375 -1 
C 11.203125 -1 13.09375 -0.3125 13.703125 1.703125 
C 14 2.5 17.703125 17.75 18.296875 20.078125 
C 18.796875 22.296875 19.40625 24.40625 19.90625 26.640625 
C 20.296875 28.046875 20.703125 29.65625 21 30.96875 
C 21.296875 31.875 24 36.796875 26.5 38.984375 
C 27.703125 40.09375 30.296875 41.984375 34.40625 41.984375 
C 36 41.984375 37.59375 41.78125 38.90625 41.140625 
z
" id="CMMI12-114"/>
       <path d="M 42.90625 71.296875 
C 42.90625 71.390625 43.5 72.890625 43.5 73.09375 
C 43.5 74.296875 42.5 75 41.703125 75 
C 41.203125 75 40.296875 75 39.5 72.796875 
L 6 -21.3125 
C 6 -21.40625 5.40625 -22.90625 5.40625 -23.109375 
C 5.40625 -24.3125 6.40625 -25 7.203125 -25 
C 7.796875 -25 8.703125 -24.90625 9.40625 -22.8125 
z
" id="CMMI12-61"/>
       <path d="M 43.296875 62.1875 
C 43.296875 67.1875 39.296875 71 34.59375 71 
C 29.90625 71 25.90625 67.1875 25.90625 62.1875 
C 25.90625 57.1875 29.90625 53.390625 34.59375 53.390625 
C 39.296875 53.390625 43.296875 57.1875 43.296875 62.1875 
z
M 34.59375 55 
C 30.40625 55 27.703125 57.59375 27.703125 62.1875 
C 27.703125 66.890625 30.5 69.390625 34.59375 69.390625 
C 38.796875 69.390625 41.5 66.796875 41.5 62.1875 
C 41.5 57.5 38.703125 55 34.59375 55 
z
" id="CMR17-23"/>
       <path d="M 36.296875 69.390625 
C 35.796875 70.6875 35.59375 71 34.59375 71 
C 33.59375 71 33.40625 70.6875 32.90625 69.390625 
L 11.703125 9.0625 
C 9.796875 3.6875 5.796875 2.59375 2.296875 2.59375 
L 2.296875 0 
C 4.09375 0.1875 8.09375 0.1875 10 0.1875 
C 12.5 0.1875 16.5 0.1875 18.90625 0 
L 18.90625 2.59375 
C 14.203125 2.796875 13.5 5.96875 13.5 7.171875 
C 13.5 8.0625 13.703125 8.5625 13.90625 9.15625 
L 19.203125 24 
L 45.40625 24 
L 51.40625 7.078125 
C 51.90625 5.875 51.90625 5.671875 51.90625 5.28125 
C 51.90625 2.59375 47.59375 2.59375 45.703125 2.59375 
L 45.703125 0 
C 48.59375 0.1875 53.796875 0.1875 56.90625 0.1875 
C 59.5 0.1875 64.5 0.1875 66.90625 0 
L 66.90625 2.59375 
C 61.59375 2.59375 59.796875 2.59375 58.5 6.28125 
z
M 32.296875 61.3125 
L 44.5 26.59375 
L 20.09375 26.59375 
z
" id="CMR17-65"/>
      </defs>
      <use transform="scale(0.996264)" xlink:href="#CMMI12-114"/>
      <use transform="translate(46.670612 0)scale(0.996264)" xlink:href="#CMMI12-61"/>
      <use transform="translate(95.445531 17.618744)scale(0.996264)" xlink:href="#CMR17-23"/>
      <use transform="translate(95.445531 0)scale(0.996264)" xlink:href="#CMR17-65"/>
     </g>
    </g>
   </g>
   <g id="matplotlib.axis_2">
    <g id="ytick_1">
     <g id="line2d_8">
      <defs>
       <path d="M 0 0 
L -3.5 0 
" id="m58f92f8d13" style="stroke:#000000;stroke-width:0.8;"/>
      </defs>
      <g>
       <use style="stroke:#000000;stroke-width:0.8;" x="69.12" xlink:href="#m58f92f8d13" y="274.752"/>
      </g>
     </g>
     <g id="text_9">
      <!-- $\mathdefault{−40}$ -->
      <g transform="translate(34.11403 280.286794)scale(0.16 -0.16)">
       <defs>
        <path d="M 65.90625 23 
C 67.59375 23 69.40625 23 69.40625 25 
C 69.40625 27 67.59375 27 65.90625 27 
L 11.796875 27 
C 10.09375 27 8.296875 27 8.296875 25 
C 8.296875 23 10.09375 23 11.796875 23 
z
" id="CMSY10-0"/>
       </defs>
       <use transform="scale(0.996264)" xlink:href="#CMSY10-0"/>
       <use transform="translate(77.487468 0)scale(0.996264)" xlink:href="#CMR17-52"/>
       <use transform="translate(123.177945 0)scale(0.996264)" xlink:href="#CMR17-48"/>
      </g>
     </g>
    </g>
    <g id="ytick_2">
     <g id="line2d_9">
      <g>
       <use style="stroke:#000000;stroke-width:0.8;" x="69.12" xlink:href="#m58f92f8d13" y="222.912"/>
      </g>
     </g>
     <g id="text_10">
      <!-- $\mathdefault{−20}$ -->
      <g transform="translate(34.11403 228.446794)scale(0.16 -0.16)">
       <use transform="scale(0.996264)" xlink:href="#CMSY10-0"/>
       <use transform="translate(77.487468 0)scale(0.996264)" xlink:href="#CMR17-50"/>
       <use transform="translate(123.177945 0)scale(0.996264)" xlink:href="#CMR17-48"/>
      </g>
     </g>
    </g>
    <g id="ytick_3">
     <g id="line2d_10">
      <g>
       <use style="stroke:#000000;stroke-width:0.8;" x="69.12" xlink:href="#m58f92f8d13" y="171.072"/>
      </g>
     </g>
     <g id="text_11">
      <!-- $\mathdefault{0}$ -->
      <g transform="translate(54.316013 176.606794)scale(0.16 -0.16)">
       <use transform="scale(0.996264)" xlink:href="#CMR17-48"/>
      </g>
     </g>
    </g>
    <g id="ytick_4">
     <g id="line2d_11">
      <g>
       <use style="stroke:#000000;stroke-width:0.8;" x="69.12" xlink:href="#m58f92f8d13" y="119.232"/>
      </g>
     </g>
     <g id="text_12">
      <!-- $\mathdefault{20}$ -->
      <g transform="translate(46.512026 124.766794)scale(0.16 -0.16)">
       <use transform="scale(0.996264)" xlink:href="#CMR17-50"/>
       <use transform="translate(45.690477 0)scale(0.996264)" xlink:href="#CMR17-48"/>
      </g>
     </g>
    </g>
    <g id="ytick_5">
     <g id="line2d_12">
      <g>
       <use style="stroke:#000000;stroke-width:0.8;" x="69.12" xlink:href="#m58f92f8d13" y="67.392"/>
      </g>
     </g>
     <g id="text_13">
      <!-- $\mathdefault{40}$ -->
      <g transform="translate(46.512026 72.926794)scale(0.16 -0.16)">
       <use transform="scale(0.996264)" xlink:href="#CMR17-52"/>
       <use transform="translate(45.690477 0)scale(0.996264)" xlink:href="#CMR17-48"/>
      </g>
     </g>
    </g>
    <g id="text_14">
     <!-- $\phi(r)$ / K -->
     <g transform="translate(26.128974 200.665811)rotate(-90)scale(0.16 -0.16)">
      <defs>
       <path d="M 43 68.09375 
C 43 69 42.296875 69 42 69 
C 41.09375 69 41 68.796875 40.59375 67.09375 
L 35.203125 45.6875 
C 34.90625 44.390625 34.796875 44.296875 34.703125 44.1875 
C 34.59375 44 33.90625 43.890625 33.703125 43.890625 
C 17.296875 42.5 4.703125 29.109375 4.703125 16.734375 
C 4.703125 6.046875 13 -0.5 23.40625 -1.109375 
C 22.59375 -4.15625 21.90625 -7.296875 21.09375 -10.34375 
C 19.703125 -15.546875 18.90625 -18.8125 18.90625 -19.203125 
C 18.90625 -19.40625 18.90625 -20 19.90625 -20 
C 20.203125 -20 20.59375 -20 20.796875 -19.609375 
C 21 -19.40625 21.59375 -17.015625 22 -15.75 
L 25.703125 -1.109375 
C 42.796875 -0.203125 55.796875 13.671875 55.796875 26.140625 
C 55.796875 36.140625 48.203125 43.296875 37.09375 44 
z
M 36.5 42 
C 43.09375 41.59375 49.703125 37.9375 49.703125 28.21875 
C 49.703125 17.03125 41.796875 2.1875 26.203125 1 
z
M 23.90625 0.890625 
C 19 1.1875 10.796875 3.765625 10.796875 14.65625 
C 10.796875 27.140625 19.90625 41 34.296875 41.890625 
z
" id="CMMI12-30"/>
       <path d="M 30.59375 -24.40625 
C 30.59375 -24.3125 30.59375 -24.109375 30.296875 -23.8125 
C 25.703125 -19.109375 13.40625 -6.296875 13.40625 24.9375 
C 13.40625 56.171875 25.5 68.875 30.40625 73.890625 
C 30.40625 73.984375 30.59375 74.1875 30.59375 74.484375 
C 30.59375 74.796875 30.296875 75 29.90625 75 
C 28.796875 75 20.296875 67.578125 15.40625 56.5625 
C 10.40625 45.453125 9 34.65625 9 25.046875 
C 9 17.828125 9.703125 5.625 15.703125 -7.296875 
C 20.5 -17.703125 28.703125 -25 29.90625 -25 
C 30.40625 -25 30.59375 -24.8125 30.59375 -24.40625 
z
" id="CMR17-40"/>
       <path d="M 26.296875 24.9375 
C 26.296875 32.140625 25.59375 44.359375 19.59375 57.265625 
C 14.796875 67.6875 6.59375 75 5.40625 75 
C 5.09375 75 4.703125 74.890625 4.703125 74.390625 
C 4.703125 74.1875 4.796875 74.09375 4.90625 73.890625 
C 9.703125 68.875 21.90625 56.171875 21.90625 25.046875 
C 21.90625 -6.1875 9.796875 -18.90625 4.90625 -23.90625 
C 4.796875 -24.109375 4.703125 -24.203125 4.703125 -24.40625 
C 4.703125 -24.90625 5.09375 -25 5.40625 -25 
C 6.5 -25 15 -17.609375 19.90625 -6.59375 
C 24.90625 4.515625 26.296875 15.328125 26.296875 24.9375 
z
" id="CMR17-41"/>
       <path d="M 40.703125 71.484375 
C 41.203125 72.78125 41.203125 72.984375 41.203125 73.1875 
C 41.203125 74.390625 40.296875 75 39.5 75 
C 38.296875 75 37.90625 74.1875 37.5 72.984375 
L 5.09375 -21.5 
C 4.59375 -22.8125 4.59375 -23 4.59375 -23.203125 
C 4.59375 -24.40625 5.5 -25 6.296875 -25 
C 7.5 -25 7.90625 -24.203125 8.296875 -23 
z
" id="CMR17-47"/>
       <path d="M 36.90625 41.703125 
L 54.203125 58.921875 
C 57.796875 62.40625 61.59375 65.1875 67.203125 65.390625 
L 67.203125 68 
C 65.203125 67.890625 62.703125 67.796875 60.703125 67.796875 
C 58 67.796875 53.296875 67.796875 50.703125 68 
L 50.703125 65.390625 
C 53.296875 65.1875 53.703125 63.390625 53.703125 62.703125 
C 53.703125 62 53.296875 60.90625 52.90625 60.3125 
L 19.703125 27.171875 
L 19.703125 60.90625 
C 19.703125 65.390625 20.796875 65.390625 27.703125 65.390625 
L 27.703125 68 
C 24.796875 67.796875 19.5 67.796875 16.40625 67.796875 
C 13.296875 67.796875 8 67.796875 5.09375 68 
L 5.09375 65.390625 
C 12 65.390625 13.09375 65.390625 13.09375 60.90625 
L 13.09375 7.078125 
C 13.09375 2.59375 12 2.59375 5.09375 2.59375 
L 5.09375 0 
C 8 0.1875 13.296875 0.1875 16.40625 0.1875 
C 19.5 0.1875 24.796875 0.1875 27.703125 0 
L 27.703125 2.59375 
C 20.796875 2.59375 19.703125 2.59375 19.703125 7.078125 
L 19.703125 24.6875 
L 32.5 37.328125 
L 51.40625 8.46875 
C 52 7.46875 52.703125 6.171875 52.703125 5.1875 
C 52.703125 2.59375 49.90625 2.59375 48.59375 2.59375 
L 48.59375 0 
C 51.796875 0.1875 56.40625 0.1875 59.703125 0.1875 
C 62.09375 0.1875 66.203125 0.1875 68.5 0 
L 68.5 2.59375 
C 63.703125 2.59375 62.203125 3.1875 59.203125 7.765625 
z
" id="CMR17-75"/>
      </defs>
      <use transform="scale(0.996264)" xlink:href="#CMMI12-30"/>
      <use transform="translate(57.73418 0)scale(0.996264)" xlink:href="#CMR17-40"/>
      <use transform="translate(93.014948 0)scale(0.996264)" xlink:href="#CMMI12-114"/>
      <use transform="translate(139.68556 0)scale(0.996264)" xlink:href="#CMR17-41"/>
      <use transform="translate(205.042294 0)scale(0.996264)" xlink:href="#CMR17-47"/>
      <use transform="translate(280.808738 0)scale(0.996264)" xlink:href="#CMR17-75"/>
     </g>
    </g>
   </g>
   <g id="line2d_13">
    <path clip-path="url(#p4b5f9a9c54)" d="M 449.28 173.120622 
L 441.780245 172.830918 
L 434.28049 172.65039 
L 426.780735 172.195461 
L 419.28098 171.672623 
L 411.781225 175.666626 
L 404.28147 176.08284 
L 396.781714 176.524957 
L 389.281959 177.047574 
L 381.782204 177.590527 
L 374.282449 178.183043 
L 366.782694 178.848643 
L 359.282939 179.522662 
L 351.783184 180.336641 
L 344.283429 181.221237 
L 336.783674 182.172189 
L 329.283919 183.207797 
L 321.784164 184.333283 
L 314.284409 185.594567 
L 306.784653 186.975147 
L 299.284898 188.459926 
L 291.785143 190.138374 
L 284.285388 191.960374 
L 276.785633 194.000689 
L 269.285878 196.251697 
L 261.786122 198.74434 
L 254.286367 201.489547 
L 246.786612 204.527351 
L 239.286857 207.909746 
L 231.787102 211.605495 
L 224.287347 215.597467 
L 216.787591 220.77229 
L 209.287836 225.521146 
L 201.788081 231.460811 
L 194.288326 236.207269 
L 186.788571 241.482525 
L 179.288816 246.579328 
L 171.789061 251.555035 
L 164.289306 255.656184 
L 156.789551 261.092574 
L 149.289796 263.648907 
L 141.790041 262.978279 
L 134.290286 258.378805 
L 126.79053 249.24121 
L 119.290775 231.330552 
L 111.79102 202.171079 
L 104.291265 157.700299 
L 96.79151 90.696792 
L 89.989017 -1 
" style="fill:none;stroke:#ff0000;stroke-dasharray:2.2,3.63;stroke-dashoffset:0;stroke-width:2.2;"/>
   </g>
   <g id="line2d_14">
    <path clip-path="url(#p4b5f9a9c54)" d="M 449.28 174.390194 
L 441.780245 174.631013 
L 434.28049 174.880478 
L 426.780735 175.164384 
L 419.28098 175.474662 
L 411.781225 175.81153 
L 404.28147 176.17987 
L 396.781714 176.595002 
L 389.281959 177.035017 
L 381.782204 177.516723 
L 374.282449 178.044721 
L 366.782694 178.624146 
L 359.282939 179.260763 
L 351.783184 179.961063 
L 344.283429 180.732338 
L 336.783674 181.582798 
L 329.283919 182.521672 
L 321.784164 183.559344 
L 314.284409 184.707468 
L 306.784653 185.979122 
L 299.284898 187.388926 
L 291.785143 188.953182 
L 284.285388 190.689983 
L 276.785633 192.619276 
L 269.285878 194.762879 
L 261.786122 197.144395 
L 254.286367 199.788969 
L 246.786612 202.722877 
L 239.286857 205.972737 
L 231.787102 209.564405 
L 224.287347 213.521171 
L 216.787591 217.861219 
L 209.287836 222.593842 
L 201.788081 227.714153 
L 194.288326 233.195409 
L 186.788571 238.97844 
L 179.288816 244.956745 
L 171.789061 250.955599 
L 164.289306 256.703613 
L 156.789551 261.79162 
L 149.289796 265.62933 
L 141.790041 267.359445 
L 134.290286 265.770617 
L 126.79053 259.150623 
L 119.290775 245.119243 
L 111.79102 220.37591 
L 104.291265 180.368539 
L 96.79151 118.844097 
L 89.291755 27.240605 
" style="fill:none;stroke:#008000;stroke-dasharray:8.14,3.52;stroke-dashoffset:0;stroke-width:2.2;"/>
   </g>
   <g id="line2d_15">
    <path clip-path="url(#p4b5f9a9c54)" d="M 449.28 173.745683 
L 441.780245 173.93275 
L 434.28049 174.142136 
L 426.780735 174.364671 
L 419.28098 174.613043 
L 411.781225 174.882105 
L 404.28147 175.173881 
L 396.781714 175.496361 
L 389.281959 175.857116 
L 381.782204 176.244063 
L 374.282449 176.665159 
L 366.782694 177.126837 
L 359.282939 177.652961 
L 351.783184 178.213731 
L 344.283429 178.827735 
L 336.783674 179.505607 
L 329.283919 180.257778 
L 321.784164 181.085322 
L 314.284409 182.00427 
L 306.784653 183.023458 
L 299.284898 184.148693 
L 291.785143 185.396149 
L 284.285388 186.783361 
L 276.785633 188.333788 
L 269.285878 190.055674 
L 261.786122 191.963329 
L 254.286367 194.08825 
L 246.786612 196.4547 
L 239.286857 199.070013 
L 231.787102 201.985004 
L 224.287347 205.212822 
L 216.787591 208.756624 
L 209.287836 212.637462 
L 201.788081 216.798223 
L 194.288326 221.024858 
L 186.788571 225.872362 
L 179.288816 229.829589 
L 171.789061 233.917842 
L 164.289306 238.162921 
L 156.789551 239.383159 
L 149.289796 241.930046 
L 141.790041 241.118482 
L 134.290286 237.490067 
L 126.79053 224.476438 
L 119.290775 207.215133 
L 111.79102 180.119488 
L 104.291265 136.34974 
L 96.79151 75.388869 
L 90.702992 -1 
" style="fill:none;stroke:#0000ff;stroke-dasharray:14.08,3.52,2.2,3.52;stroke-dashoffset:0;stroke-width:2.2;"/>
   </g>
   <g id="line2d_16">
    <path clip-path="url(#p4b5f9a9c54)" d="M 449.28 176.315913 
L 441.780245 176.665962 
L 434.28049 177.042916 
L 426.780735 177.449077 
L 419.28098 177.886962 
L 411.781225 178.359316 
L 404.28147 178.86914 
L 396.781714 179.41971 
L 389.281959 180.014598 
L 381.782204 180.657706 
L 374.282449 181.353289 
L 366.782694 182.105981 
L 359.282939 182.92083 
L 351.783184 183.803323 
L 344.283429 184.759419 
L 336.783674 185.79557 
L 329.283919 186.918753 
L 321.784164 188.136479 
L 314.284409 189.45681 
L 306.784653 190.888348 
L 299.284898 192.440217 
L 291.785143 194.122011 
L 284.285388 195.943711 
L 276.785633 197.915547 
L 269.285878 200.047793 
L 261.786122 202.350472 
L 254.286367 204.832934 
L 246.786612 207.503262 
L 239.286857 210.367457 
L 231.787102 213.428318 
L 224.287347 216.683903 
L 216.787591 220.125456 
L 209.287836 223.734578 
L 201.788081 227.479414 
L 194.288326 231.309478 
L 186.788571 235.148675 
L 179.288816 238.885829 
L 171.789061 242.361858 
L 164.289306 245.352348 
L 156.789551 247.543817 
L 149.289796 248.501308 
L 141.790041 247.623968 
L 134.290286 244.083964 
L 126.79053 236.742101 
L 119.290775 224.030744 
L 111.79102 203.790542 
L 104.291265 173.041523 
L 96.79151 127.660278 
L 89.291755 61.921889 
" style="fill:none;stroke:#bf00bf;stroke-dasharray:4.4,4.4,4.4,4.4;stroke-dashoffset:0;stroke-width:2.2;"/>
   </g>
   <g id="line2d_17">
    <path clip-path="url(#p4b5f9a9c54)" d="M 449.28 175.281888 
L 441.780245 175.574748 
L 434.28049 175.891487 
L 426.780735 176.234328 
L 419.28098 176.605726 
L 411.781225 177.008392 
L 404.28147 177.445321 
L 396.781714 177.919828 
L 389.281959 178.43558 
L 381.782204 178.996638 
L 374.282449 179.607501 
L 366.782694 180.273155 
L 359.282939 180.999129 
L 351.783184 181.79155 
L 344.283429 182.657215 
L 336.783674 183.603659 
L 329.283919 184.639231 
L 321.784164 185.773177 
L 314.284409 187.015728 
L 306.784653 188.378185 
L 299.284898 189.873003 
L 291.785143 191.513882 
L 284.285388 193.315823 
L 276.785633 195.295182 
L 269.285878 197.469673 
L 261.786122 199.858315 
L 254.286367 202.481288 
L 246.786612 205.359649 
L 239.286857 208.514856 
L 231.787102 211.967992 
L 224.287347 215.738574 
L 216.787591 219.842762 
L 209.287836 224.290691 
L 201.788081 229.082574 
L 194.288326 234.203014 
L 186.788571 239.612763 
L 179.288816 245.236807 
L 171.789061 250.947137 
L 164.289306 256.537849 
L 156.789551 261.689081 
L 149.289796 265.91465 
L 141.790041 268.485782 
L 134.290286 268.319546 
L 126.79053 263.814871 
L 119.290775 252.610219 
L 111.79102 231.223287 
L 104.291265 194.511722 
L 96.79151 134.86007 
L 89.291755 40.944308 
" style="fill:none;stroke:#ffa500;stroke-dasharray:6.6,2.2,2.2,2.2;stroke-dashoffset:0;stroke-width:2.2;"/>
   </g>
   <g id="line2d_18">
    <path clip-path="url(#p4b5f9a9c54)" d="M 449.28 174.464562 
L 441.780245 174.713582 
L 434.28049 174.984369 
L 426.780735 175.279135 
L 419.28098 175.600355 
L 411.781225 175.950791 
L 404.28147 176.333532 
L 396.781714 176.752039 
L 389.281959 177.210191 
L 381.782204 177.71234 
L 374.282449 178.263377 
L 366.782694 178.868795 
L 359.282939 179.534779 
L 351.783184 180.268287 
L 344.283429 181.077152 
L 336.783674 181.970198 
L 329.283919 182.957359 
L 321.784164 184.049812 
L 314.284409 185.260129 
L 306.784653 186.602422 
L 299.284898 188.092507 
L 291.785143 189.748057 
L 284.285388 191.588747 
L 276.785633 193.636371 
L 269.285878 195.914912 
L 261.786122 198.450531 
L 254.286367 201.271428 
L 246.786612 204.407516 
L 239.286857 207.889819 
L 231.787102 211.749454 
L 224.287347 216.016053 
L 216.787591 220.715356 
L 209.287836 225.865668 
L 201.788081 231.472733 
L 194.288326 237.52241 
L 186.788571 243.970318 
L 179.288816 250.727351 
L 171.789061 257.639515 
L 164.289306 264.460049 
L 156.789551 270.811048 
L 149.289796 276.130847 
L 141.790041 279.60212 
L 134.290286 280.053918 
L 126.79053 275.828509 
L 119.290775 264.600783 
L 111.79102 243.133732 
L 104.291265 206.947918 
L 96.79151 149.875263 
L 89.291755 63.45733 
L 86.59474 -1 
" style="fill:none;stroke:#000000;stroke-linecap:square;stroke-width:2.2;"/>
   </g>
   <g id="patch_3">
    <path d="M 69.12 300.672 
L 69.12 41.472 
" style="fill:none;stroke:#000000;stroke-linecap:square;stroke-linejoin:miter;stroke-width:0.8;"/>
   </g>
   <g id="patch_4">
    <path d="M 414.72 300.672 
L 414.72 41.472 
" style="fill:none;stroke:#000000;stroke-linecap:square;stroke-linejoin:miter;stroke-width:0.8;"/>
   </g>
   <g id="patch_5">
    <path d="M 69.12 300.672 
L 414.72 300.672 
" style="fill:none;stroke:#000000;stroke-linecap:square;stroke-linejoin:miter;stroke-width:0.8;"/>
   </g>
   <g id="patch_6">
    <path d="M 69.12 41.472 
L 414.72 41.472 
" style="fill:none;stroke:#000000;stroke-linecap:square;stroke-linejoin:miter;stroke-width:0.8;"/>
   </g>
   <g id="legend_1">
    <g id="line2d_19">
     <path d="M 229.020223 59.809812 
L 257.020223 59.809812 
" style="fill:none;stroke:#ff0000;stroke-dasharray:2.2,3.63;stroke-dashoffset:0;stroke-width:2.2;"/>
    </g>
    <g id="line2d_20"/>
    <g id="text_15">
     <!-- DLPNO-CCSD(T)/5Z -->
     <g transform="translate(268.220223 64.709812)scale(0.14 -0.14)">
      <defs>
       <path d="M 5.203125 68 
L 5.203125 65.390625 
C 12.09375 65.390625 13.203125 65.390625 13.203125 60.90625 
L 13.203125 7.078125 
C 13.203125 2.59375 12.09375 2.59375 5.203125 2.59375 
L 5.203125 0 
L 37 0 
C 53.09375 0 66 14.734375 66 33.4375 
C 66 52.25 53.296875 68 37 68 
z
M 23.796875 2.59375 
C 19.796875 2.59375 19.59375 3.09375 19.59375 6.46875 
L 19.59375 61.5 
C 19.59375 64.890625 19.796875 65.390625 23.796875 65.390625 
L 35 65.390625 
C 43.296875 65.390625 58.59375 60.515625 58.59375 33.4375 
C 58.59375 19.40625 54.5 13.734375 52.59375 11.046875 
C 50.203125 7.96875 44.5 2.59375 35 2.59375 
z
" id="CMR17-68"/>
       <path d="M 54.203125 25.1875 
L 52.40625 25.1875 
C 51.59375 15.328125 50.296875 2.59375 33.203125 2.59375 
L 23.90625 2.59375 
C 19.90625 2.59375 19.703125 3.09375 19.703125 6.46875 
L 19.703125 60.8125 
C 19.703125 64.390625 19.90625 65.390625 27.5 65.390625 
L 29.703125 65.390625 
L 29.703125 68 
C 25.59375 67.796875 20.796875 67.796875 16.703125 67.796875 
C 13.59375 67.796875 8 67.796875 5.09375 68 
L 5.09375 65.390625 
C 12 65.390625 13.09375 65.390625 13.09375 60.90625 
L 13.09375 7.078125 
C 13.09375 2.59375 12 2.59375 5.09375 2.59375 
L 5.09375 0 
L 51.796875 0 
z
" id="CMR17-76"/>
       <path d="M 19.796875 32 
L 35.796875 32 
C 48.703125 32 58.09375 40.359375 58.09375 49.796875 
C 58.09375 59.234375 48.90625 68 35.796875 68 
L 5.203125 68 
L 5.203125 65.390625 
C 12.09375 65.390625 13.203125 65.390625 13.203125 60.921875 
L 13.203125 7.078125 
C 13.203125 2.59375 12.09375 2.59375 5.203125 2.59375 
L 5.203125 0 
C 8.09375 0.1875 13.40625 0.1875 16.5 0.1875 
C 19.59375 0.1875 24.90625 0.1875 27.796875 0 
L 27.796875 2.59375 
C 20.90625 2.59375 19.796875 2.59375 19.796875 7.078125 
z
M 19.59375 34.09375 
L 19.59375 61.515625 
C 19.59375 64.890625 19.796875 65.390625 23.796875 65.390625 
L 33.90625 65.390625 
C 46.796875 65.390625 50.5 58.046875 50.5 49.796875 
C 50.5 40.75 46.09375 34.09375 33.90625 34.09375 
z
" id="CMR17-80"/>
       <path d="M 20.5 66.796875 
C 19.796875 67.890625 19.703125 68 17.796875 68 
L 5.09375 68 
L 5.09375 65.390625 
L 7 65.390625 
C 11 65.390625 12.796875 64.890625 13.09375 64.796875 
L 13.09375 9.75 
C 13.09375 7.265625 13.09375 2.59375 5.09375 2.59375 
L 5.09375 0 
C 7.40625 0.1875 11.59375 0.1875 14.09375 0.1875 
C 16.59375 0.1875 20.796875 0.1875 23.09375 0 
L 23.09375 2.59375 
C 15.09375 2.59375 15.09375 7.265625 15.09375 9.75 
L 15.09375 63.390625 
C 15.796875 62.796875 15.796875 62.609375 16.5 61.609375 
L 53.59375 1.1875 
C 54.296875 0 54.59375 0 55.09375 0 
C 56.09375 0 56.09375 0.296875 56.09375 2.1875 
L 56.09375 58.21875 
C 56.09375 60.703125 56.09375 65.390625 64.09375 65.390625 
L 64.09375 68 
C 61.796875 67.796875 57.59375 67.796875 55.09375 67.796875 
C 52.59375 67.796875 48.40625 67.796875 46.09375 68 
L 46.09375 65.390625 
C 54.09375 65.390625 54.09375 60.703125 54.09375 58.21875 
L 54.09375 12.140625 
z
" id="CMR17-78"/>
       <path d="M 67.296875 33.84375 
C 67.296875 54.5 52.59375 70 36 70 
C 19 70 4.59375 54.296875 4.59375 33.84375 
C 4.59375 13.390625 19.203125 -2 35.90625 -2 
C 53 -2 67.296875 13.6875 67.296875 33.84375 
z
M 36 -0.203125 
C 24.59375 -0.203125 12.203125 11.28125 12.203125 35.15625 
C 12.203125 58.921875 25.796875 68.1875 35.90625 68.1875 
C 46.5 68.1875 59.703125 58.625 59.703125 35.15625 
C 59.703125 10.875 47 -0.203125 36 -0.203125 
z
" id="CMR17-79"/>
       <path d="M 25.5 19.59375 
L 25.5 24 
L 0.40625 24 
L 0.40625 19.59375 
z
" id="CMR17-45"/>
       <path d="M 62.09375 67.984375 
C 62.09375 69.796875 62 69.890625 61.40625 69.890625 
C 61 69.890625 60.90625 69.796875 60.203125 68.59375 
L 55.796875 60.140625 
C 50.90625 66.390625 44.90625 70 37.203125 70 
C 20.09375 70 4.59375 54.796875 4.59375 34.046875 
C 4.59375 13.078125 20.09375 -2 37.296875 -2 
C 52.59375 -2 62.09375 11.578125 62.09375 23.15625 
C 62.09375 24.171875 62.09375 24.578125 61.203125 24.578125 
C 60.40625 24.578125 60.40625 24.265625 60.296875 23.359375 
C 59.5 9.25 49.5 0.59375 38.703125 0.59375 
C 28.5 0.59375 12.203125 7.84375 12.203125 34.046875 
C 12.203125 60.34375 28.796875 67.390625 38.5 67.390625 
C 49.796875 67.390625 58 57.515625 59.90625 43.515625 
C 60.09375 42.296875 60.09375 42.109375 61 42.109375 
C 62.09375 42.109375 62.09375 42.296875 62.09375 44.125 
z
" id="CMR17-67"/>
       <path d="M 43.796875 67.984375 
C 43.796875 69.796875 43.703125 69.890625 43.09375 69.890625 
C 42.5 69.890625 42.296875 69.484375 41.90625 68.59375 
L 38.90625 61.953125 
C 35.09375 67.5 29.296875 70 23 70 
C 12.796875 70 4.59375 61.84375 4.59375 51.578125 
C 4.59375 48.453125 5.296875 44.015625 8.703125 39.78125 
C 12.40625 35.15625 15.90625 34.34375 23.90625 32.234375 
C 26.90625 31.421875 31.90625 30.109375 32.90625 29.703125 
C 38.59375 27.296875 41.59375 21.25 41.59375 15.609375 
C 41.59375 8.34375 36.5 0.59375 27.796875 0.59375 
C 17.09375 0.59375 7.09375 6.640625 6.40625 20.75 
C 6.296875 22.359375 6.203125 22.453125 5.5 22.453125 
C 4.703125 22.453125 4.59375 22.359375 4.59375 20.34375 
L 4.59375 0 
C 4.59375 -1.8125 4.703125 -1.90625 5.296875 -1.90625 
C 6 -1.90625 6.203125 -1.40625 7.59375 1.703125 
C 7.703125 2 7.703125 2.203125 9.59375 6.03125 
C 14.59375 -0.609375 23 -2 27.796875 -2 
C 38.703125 -2 46.40625 7.140625 46.40625 17.828125 
C 46.40625 23.0625 44.5 27.09375 43.40625 28.90625 
C 39.203125 35.359375 34.703125 36.5625 29.90625 37.765625 
C 29.203125 38.078125 29 38.078125 23.40625 39.484375 
C 18 40.890625 15.703125 41.59375 13.203125 44.3125 
C 10.40625 47.4375 9.40625 50.671875 9.40625 53.890625 
C 9.40625 60.4375 14.59375 67.59375 23.09375 67.59375 
C 33.703125 67.59375 40.296875 60.03125 41.796875 47.4375 
C 42.09375 45.625 42.203125 45.53125 42.90625 45.53125 
C 43.796875 45.53125 43.796875 45.828125 43.796875 47.546875 
z
" id="CMR17-83"/>
       <path d="M 62.203125 67.6875 
L 4.5 67.6875 
L 2.796875 45.6875 
L 4.59375 45.6875 
C 5.90625 62.203125 7.296875 65.09375 22.703125 65.09375 
C 24.5 65.09375 27.40625 65.09375 28.203125 64.984375 
C 30.09375 64.6875 30.09375 63.5 30.09375 61.203125 
L 30.09375 7.265625 
C 30.09375 3.6875 29.796875 2.59375 21.5 2.59375 
L 18.703125 2.59375 
L 18.703125 0 
C 23.5 0.09375 28.5 0.1875 33.40625 0.1875 
C 38.296875 0.1875 43.296875 0.09375 48.09375 0 
L 48.09375 2.59375 
L 45.296875 2.59375 
C 37 2.59375 36.703125 3.6875 36.703125 7.265625 
L 36.703125 61.203125 
C 36.703125 63.390625 36.703125 64.59375 38.5 64.984375 
C 39.296875 65.09375 42.203125 65.09375 44 65.09375 
C 59.296875 65.09375 60.796875 62.203125 62.09375 45.6875 
L 63.90625 45.6875 
z
" id="CMR17-84"/>
       <path d="M 51.59375 65.984375 
C 51.59375 67.890625 51.5 68 49.40625 68 
L 6.90625 68 
L 5.90625 45.984375 
L 7.703125 45.984375 
C 8.296875 57.328125 11.296875 65.390625 27.5 65.390625 
L 44 65.390625 
L 5.296875 3.1875 
C 4.59375 2.09375 4.59375 2 4.59375 1.296875 
C 4.59375 0 4.796875 0 6.796875 0 
L 50.703125 0 
L 52.09375 25.984375 
L 50.296875 25.984375 
C 49.40625 12.9375 48.703125 2.796875 29.59375 2.796875 
L 12.203125 2.796875 
z
" id="CMR17-90"/>
      </defs>
      <use transform="scale(0.996264)" xlink:href="#CMR17-68"/>
      <use transform="translate(70.393556 0)scale(0.996264)" xlink:href="#CMR17-76"/>
      <use transform="translate(127.774964 0)scale(0.996264)" xlink:href="#CMR17-80"/>
      <use transform="translate(190.361264 0)scale(0.996264)" xlink:href="#CMR17-78"/>
      <use transform="translate(259.433694 0)scale(0.996264)" xlink:href="#CMR17-79"/>
      <use transform="translate(331.148482 0)scale(0.996264)" xlink:href="#CMR17-45"/>
      <use transform="translate(361.224449 0)scale(0.996264)" xlink:href="#CMR17-67"/>
      <use transform="translate(427.734329 0)scale(0.996264)" xlink:href="#CMR17-67"/>
      <use transform="translate(494.24421 0)scale(0.996264)" xlink:href="#CMR17-83"/>
      <use transform="translate(545.13958 0)scale(0.996264)" xlink:href="#CMR17-68"/>
      <use transform="translate(615.533136 0)scale(0.996264)" xlink:href="#CMR17-40"/>
      <use transform="translate(650.813903 0)scale(0.996264)" xlink:href="#CMR17-84"/>
      <use transform="translate(717.323784 0)scale(0.996264)" xlink:href="#CMR17-41"/>
      <use transform="translate(752.604552 0)scale(0.996264)" xlink:href="#CMR17-47"/>
      <use transform="translate(798.295029 0)scale(0.996264)" xlink:href="#CMR17-53"/>
      <use transform="translate(843.985506 0)scale(0.996264)" xlink:href="#CMR17-90"/>
     </g>
    </g>
    <g id="line2d_21">
     <path d="M 229.020223 80.934549 
L 257.020223 80.934549 
" style="fill:none;stroke:#008000;stroke-dasharray:8.14,3.52;stroke-dashoffset:0;stroke-width:2.2;"/>
    </g>
    <g id="line2d_22"/>
    <g id="text_16">
     <!-- CCSD(T)/5Z -->
     <g transform="translate(268.220223 85.834549)scale(0.14 -0.14)">
      <use transform="scale(0.996264)" xlink:href="#CMR17-67"/>
      <use transform="translate(66.509881 0)scale(0.996264)" xlink:href="#CMR17-67"/>
      <use transform="translate(133.019761 0)scale(0.996264)" xlink:href="#CMR17-83"/>
      <use transform="translate(183.915131 0)scale(0.996264)" xlink:href="#CMR17-68"/>
      <use transform="translate(254.308687 0)scale(0.996264)" xlink:href="#CMR17-40"/>
      <use transform="translate(289.589455 0)scale(0.996264)" xlink:href="#CMR17-84"/>
      <use transform="translate(356.099335 0)scale(0.996264)" xlink:href="#CMR17-41"/>
      <use transform="translate(391.380103 0)scale(0.996264)" xlink:href="#CMR17-47"/>
      <use transform="translate(437.07058 0)scale(0.996264)" xlink:href="#CMR17-53"/>
      <use transform="translate(482.761057 0)scale(0.996264)" xlink:href="#CMR17-90"/>
     </g>
    </g>
    <g id="line2d_23">
     <path d="M 229.020223 102.059286 
L 257.020223 102.059286 
" style="fill:none;stroke:#0000ff;stroke-dasharray:14.08,3.52,2.2,3.52;stroke-dashoffset:0;stroke-width:2.2;"/>
    </g>
    <g id="line2d_24"/>
    <g id="text_17">
     <!-- HFLD/5Z -->
     <g transform="translate(268.220223 106.959286)scale(0.14 -0.14)">
      <defs>
       <path d="M 56.09375 60.90625 
C 56.09375 65.390625 57.203125 65.390625 64.09375 65.390625 
L 64.09375 68 
C 61.203125 67.796875 55.90625 67.796875 52.796875 67.796875 
C 49.703125 67.796875 44.40625 67.796875 41.5 68 
L 41.5 65.390625 
C 48.40625 65.390625 49.5 65.390625 49.5 60.90625 
L 49.5 36.59375 
L 19.703125 36.59375 
L 19.703125 60.90625 
C 19.703125 65.390625 20.796875 65.390625 27.703125 65.390625 
L 27.703125 68 
C 24.796875 67.796875 19.5 67.796875 16.40625 67.796875 
C 13.296875 67.796875 8 67.796875 5.09375 68 
L 5.09375 65.390625 
C 12 65.390625 13.09375 65.390625 13.09375 60.90625 
L 13.09375 7.0625 
C 13.09375 2.59375 12 2.59375 5.09375 2.59375 
L 5.09375 0 
C 8 0.1875 13.296875 0.1875 16.40625 0.1875 
C 19.5 0.1875 24.796875 0.1875 27.703125 0 
L 27.703125 2.59375 
C 20.796875 2.59375 19.703125 2.59375 19.703125 7.0625 
L 19.703125 34 
L 49.5 34 
L 49.5 7.0625 
C 49.5 2.59375 48.40625 2.59375 41.5 2.59375 
L 41.5 0 
C 44.40625 0.1875 49.703125 0.1875 52.796875 0.1875 
C 55.90625 0.1875 61.203125 0.1875 64.09375 0 
L 64.09375 2.59375 
C 57.203125 2.59375 56.09375 2.59375 56.09375 7.0625 
z
" id="CMR17-72"/>
       <path d="M 54.40625 67.796875 
L 5.09375 67.796875 
L 5.09375 65.1875 
C 12 65.1875 13.09375 65.1875 13.09375 60.671875 
L 13.09375 7.03125 
C 13.09375 2.59375 12 2.59375 5.09375 2.59375 
L 5.09375 0 
C 8 0.1875 13.59375 0.1875 16.703125 0.1875 
C 20.796875 0.1875 25.59375 0.1875 29.703125 0 
L 29.703125 2.59375 
L 27.5 2.59375 
C 19.90625 2.59375 19.703125 3.578125 19.703125 7.125 
L 19.703125 32.390625 
L 28.703125 32.390625 
C 38 32.390625 38.90625 29.140625 38.90625 20.84375 
L 40.703125 20.84375 
L 40.703125 46.734375 
L 38.90625 46.734375 
C 38.90625 38.296875 38 35 28.703125 35 
L 19.703125 35 
L 19.703125 61.28125 
C 19.703125 64.6875 19.90625 65.1875 23.90625 65.1875 
L 36.796875 65.1875 
C 51.90625 65.1875 53.59375 58.96875 55 45.625 
L 56.796875 45.625 
z
" id="CMR17-70"/>
      </defs>
      <use transform="scale(0.996264)" xlink:href="#CMR17-72"/>
      <use transform="translate(69.07243 0)scale(0.996264)" xlink:href="#CMR17-70"/>
      <use transform="translate(129.056276 0)scale(0.996264)" xlink:href="#CMR17-76"/>
      <use transform="translate(186.437684 0)scale(0.996264)" xlink:href="#CMR17-68"/>
      <use transform="translate(256.83124 0)scale(0.996264)" xlink:href="#CMR17-47"/>
      <use transform="translate(302.521717 0)scale(0.996264)" xlink:href="#CMR17-53"/>
      <use transform="translate(348.212194 0)scale(0.996264)" xlink:href="#CMR17-90"/>
     </g>
    </g>
    <g id="line2d_25">
     <path d="M 229.020223 123.184022 
L 257.020223 123.184022 
" style="fill:none;stroke:#bf00bf;stroke-dasharray:4.4,4.4,4.4,4.4;stroke-dashoffset:0;stroke-width:2.2;"/>
    </g>
    <g id="line2d_26"/>
    <g id="text_18">
     <!-- Dufal $\textit{et al.}$ -->
     <g transform="translate(268.220223 128.084022)scale(0.14 -0.14)">
      <defs>
       <path d="M 29.40625 42.890625 
L 29.40625 40.296875 
C 35.296875 40.296875 36.203125 39.6875 36.203125 34.828125 
L 36.203125 16.453125 
C 36.203125 7.96875 31.703125 0.59375 24.296875 0.59375 
C 16.09375 0.59375 15.40625 5.546875 15.40625 10.796875 
L 15.40625 44 
L 3.296875 42.890625 
L 3.296875 40.296875 
C 7.296875 40.296875 10 40.296875 10.09375 36.25 
L 10.09375 16.859375 
C 10.09375 10.09375 10.09375 5.75 12.703125 2.921875 
C 14 1.609375 16.5 -1 23.703125 -1 
C 32.203125 -1 35.5 6.25 36.296875 8.375 
L 36.40625 8.375 
L 36.40625 -1 
L 48.296875 -0.203125 
L 48.296875 2.40625 
C 42.40625 2.40625 41.5 3.015625 41.5 7.859375 
L 41.5 44 
z
" id="CMR17-117"/>
       <path d="M 15.296875 40.390625 
L 26.703125 40.390625 
L 26.703125 43 
L 15.09375 43 
L 15.09375 55.296875 
C 15.09375 63.6875 19.296875 68.390625 23.59375 68.390625 
C 24.90625 68.390625 26.40625 68.171875 27.40625 67.796875 
C 26.59375 67.59375 24.5 66.890625 24.5 64.390625 
C 24.5 61.796875 26.5 61 27.90625 61 
C 29.296875 61 31.296875 61.796875 31.296875 64.390625 
C 31.296875 68.015625 27.703125 70 23.703125 70 
C 18 70 10.203125 65.796875 10.203125 55.09375 
L 10.203125 43 
L 2.203125 43 
L 2.203125 40.390625 
L 10.203125 40.390625 
L 10.203125 6.890625 
C 10.203125 3.09375 9.796875 2.59375 3.40625 2.59375 
L 3.40625 0 
C 5.796875 0.1875 10.40625 0.1875 13 0.1875 
C 15.90625 0.1875 21 0.1875 23.703125 0 
L 23.703125 2.59375 
C 16.5 2.59375 15.296875 2.59375 15.296875 7.09375 
z
" id="CMR17-102"/>
       <path d="M 36 25.875 
C 36 32 36 35.546875 31.796875 39.59375 
C 28.09375 42.984375 23.796875 44 20.40625 44 
C 12.5 44 6.796875 37.625 6.796875 30.890625 
C 6.796875 27.1875 9.796875 27 10.40625 27 
C 11.703125 27 14 27.796875 14 30.59375 
C 14 33.09375 12.09375 34.1875 10.40625 34.1875 
C 10 34.1875 9.5 34.09375 9.203125 34 
C 11.296875 40.53125 16.703125 42.390625 20.203125 42.390625 
C 25.203125 42.390625 30.703125 37.828125 30.703125 29.296875 
L 30.703125 25.5 
C 24.796875 25.296875 17.703125 24.5 12.09375 21.453125 
C 5.796875 17.921875 4 12.84375 4 9 
C 4 1.203125 13 -1 18.296875 -1 
C 23.796875 -1 28.90625 2.109375 31.09375 7.890625 
C 31.296875 3.421875 34.09375 -0.609375 38.5 -0.609375 
C 40.59375 -0.609375 45.90625 0.796875 45.90625 8.796875 
L 45.90625 14.46875 
L 44.09375 14.46875 
L 44.09375 8.703125 
C 44.09375 2.515625 41.40625 1.703125 40.09375 1.703125 
C 36 1.703125 36 6.96875 36 11.4375 
z
M 30.703125 13.859375 
C 30.703125 5.046875 24.5 0.59375 19 0.59375 
C 14 0.59375 10.09375 4.34375 10.09375 9 
C 10.09375 12.046875 11.40625 17.40625 17.203125 20.65625 
C 22 23.390625 27.5 23.796875 30.703125 24 
z
" id="CMR17-97"/>
       <path d="M 15.296875 69 
L 3.40625 67.890625 
L 3.40625 65.296875 
C 9.296875 65.296875 10.203125 64.703125 10.203125 59.921875 
L 10.203125 6.859375 
C 10.203125 3.09375 9.796875 2.59375 3.40625 2.59375 
L 3.40625 0 
C 5.796875 0.1875 10.203125 0.1875 12.703125 0.1875 
C 15.296875 0.1875 19.703125 0.1875 22.09375 0 
L 22.09375 2.59375 
C 15.703125 2.59375 15.296875 2.984375 15.296875 6.859375 
z
" id="CMR17-108"/>
       <path d="M 23 23 
C 26.5 23 45.296875 23 45.296875 35.65625 
C 45.296875 40.1875 41.59375 44 35.703125 44 
C 25.296875 44 11.40625 33.75 11.40625 16.15625 
C 11.40625 6.140625 16.59375 -1 25.09375 -1 
C 37.5 -1 45.703125 9.015625 45.703125 10.40625 
C 45.703125 11.09375 44.90625 11.890625 44.296875 11.890625 
C 44 11.890625 43.90625 11.796875 43.09375 10.90625 
C 37.796875 3.765625 30.296875 1 25.203125 1 
C 18.59375 1 17.703125 8.828125 17.703125 12 
C 17.703125 16.359375 18.40625 19.125 19.40625 23 
z
M 20 25 
C 24 40.984375 33.796875 41.984375 35.59375 41.984375 
C 39.59375 41.984375 41.90625 39.171875 41.90625 35.75 
C 41.90625 25 25.296875 25 22.09375 25 
z
" id="CMTI12-101"/>
       <path d="M 25.59375 40.09375 
L 33.90625 40.09375 
C 35.59375 40.09375 36.59375 40.09375 36.59375 41.890625 
C 36.59375 43 35.90625 43 34.203125 43 
L 26.296875 43 
L 30.296875 58.328125 
C 30.40625 58.53125 30.5 59.40625 30.5 59.59375 
C 30.5 60.5 29.796875 62 27.90625 62 
C 25.40625 62 24.5 59.796875 24.09375 58.328125 
L 20.203125 43 
L 11.703125 43 
C 9.90625 43 9 43 9 41.09375 
C 9 40.09375 9.796875 40.09375 11.40625 40.09375 
L 19.5 40.09375 
L 12.296875 11.359375 
C 11.796875 9.375 11.796875 8.171875 11.796875 7.78125 
C 11.796875 3.1875 14.5 -1 20 -1 
C 29.796875 -1 34.796875 13.765625 34.796875 14.265625 
C 34.796875 15.15625 33.90625 15.15625 33.5 15.15625 
C 32.40625 15.15625 32.296875 14.953125 31.796875 13.859375 
C 30.59375 10.765625 26.703125 1 20.203125 1 
C 18.703125 1 17.296875 1.6875 17.296875 4.984375 
C 17.296875 6.484375 17.703125 8.765625 18.09375 10.265625 
z
" id="CMTI12-116"/>
       <path d="M 47.5 38.109375 
C 47.796875 39.203125 47.796875 39.5 47.796875 39.703125 
C 47.796875 40.796875 47 42.09375 45.203125 42.09375 
C 42 42.09375 41.296875 38.203125 41.296875 38.203125 
L 41.203125 38.109375 
C 39.296875 42.796875 35.90625 44 33.203125 44 
C 22.296875 44 10.796875 28.71875 10.796875 14.15625 
C 10.796875 5.28125 15.5 -1 22.296875 -1 
C 26.40625 -1 30.5 1.59375 34.296875 6.078125 
C 35.40625 0 39.90625 -1 42.203125 -1 
C 46.09375 -1 48.09375 1.890625 49.40625 4.78125 
C 51.09375 8.28125 52.296875 13.96875 52.296875 14.265625 
C 52.296875 15.15625 51.40625 15.15625 51 15.15625 
C 49.796875 15.15625 49.703125 15.0625 49.09375 12.765625 
C 47.09375 4.484375 45.203125 1 42.40625 1 
C 40.203125 1 39.703125 3.09375 39.703125 4.984375 
C 39.703125 6.484375 40.09375 8.78125 40.5 10.265625 
z
M 34.90625 12.0625 
C 34.296875 9.46875 28.296875 1 22.5 1 
C 17.203125 1 17 8.78125 17 9.96875 
C 17 14.953125 20.203125 26.734375 21.796875 30.71875 
C 24.40625 36.90625 28.90625 41.984375 33.203125 41.984375 
C 39.203125 41.984375 39.90625 33.109375 39.90625 32.421875 
C 39.90625 32.3125 39.59375 31.21875 39.59375 31.015625 
z
" id="CMTI12-97"/>
       <path d="M 29.796875 66.6875 
C 29.90625 67.296875 30.09375 67.6875 30.09375 68 
C 30.09375 68.890625 29.40625 69 27.796875 68.890625 
L 17.796875 68 
C 16.40625 67.890625 15.5 67.796875 15.5 65.984375 
C 15.5 64.984375 16.296875 64.984375 17.703125 64.984375 
C 22.703125 64.984375 22.703125 64.09375 22.703125 63.109375 
C 22.703125 62.703125 22.5 61.71875 22.40625 61.3125 
L 9.796875 11.234375 
C 9.59375 10.328125 9.296875 9.234375 9.296875 7.75 
C 9.296875 2.484375 12.703125 -1 17.296875 -1 
C 20.703125 -1 22.703125 1.296875 24.09375 4.078125 
C 25.90625 7.359375 27.296875 13.8125 27.296875 14.109375 
C 27.296875 15.109375 26.5 15.109375 26 15.109375 
C 25.59375 15.109375 24.90625 15.109375 24.703125 14.515625 
C 24.59375 14.203125 24.203125 12.71875 23.90625 11.828125 
C 22.59375 6.953125 20.90625 1 17.5 1 
C 15.296875 1 14.796875 3.078125 14.796875 4.96875 
C 14.796875 6.265625 15.296875 9.046875 15.59375 10.328125 
z
" id="CMTI12-108"/>
       <path d="M 21.09375 5.796875 
C 21.09375 8.796875 18.796875 9.6875 17.09375 9.6875 
C 14.296875 9.6875 11.203125 7 11.203125 3.890625 
C 11.203125 1.6875 12.796875 0 15.203125 0 
C 17.90625 0 21.09375 2.5 21.09375 5.796875 
z
" id="CMTI12-46"/>
      </defs>
      <use transform="scale(0.996264)" xlink:href="#CMR17-68"/>
      <use transform="translate(70.393556 0)scale(0.996264)" xlink:href="#CMR17-117"/>
      <use transform="translate(121.288926 0)scale(0.996264)" xlink:href="#CMR17-102"/>
      <use transform="translate(148.762438 0)scale(0.996264)" xlink:href="#CMR17-97"/>
      <use transform="translate(194.452915 0)scale(0.996264)" xlink:href="#CMR17-108"/>
      <use transform="translate(249.39994 0)scale(0.996264)" xlink:href="#CMTI12-101"/>
      <use transform="translate(294.232277 0)scale(0.996264)" xlink:href="#CMTI12-116"/>
      <use transform="translate(361.480766 0)scale(0.996264)" xlink:href="#CMTI12-97"/>
      <use transform="translate(411.294438 0)scale(0.996264)" xlink:href="#CMTI12-108"/>
      <use transform="translate(436.201312 0)scale(0.996264)" xlink:href="#CMTI12-46"/>
     </g>
    </g>
    <g id="line2d_27">
     <path d="M 229.020223 143.733397 
L 257.020223 143.733397 
" style="fill:none;stroke:#ffa500;stroke-dasharray:6.6,2.2,2.2,2.2;stroke-dashoffset:0;stroke-width:2.2;"/>
    </g>
    <g id="line2d_28"/>
    <g id="text_19">
     <!-- Aasen $\textit{et al.}$ -->
     <g transform="translate(268.220223 148.633397)scale(0.14 -0.14)">
      <defs>
       <path d="M 30.90625 42 
C 30.90625 43.796875 30.796875 43.890625 30.203125 43.890625 
C 29.796875 43.890625 29.703125 43.796875 28.5 42.296875 
C 28.203125 41.890625 27.296875 40.890625 27 40.5 
C 23.796875 43.890625 19.296875 44 17.59375 44 
C 6.5 44 2.5 38.1875 2.5 32.390625 
C 2.5 23.390625 12.703125 21.296875 15.59375 20.6875 
C 21.90625 19.390625 24.09375 19 26.203125 17.1875 
C 27.5 16 29.703125 13.796875 29.703125 10.1875 
C 29.703125 6 27.296875 0.59375 18.09375 0.59375 
C 9.40625 0.59375 6.296875 7.1875 4.5 16 
C 4.203125 17.390625 4.203125 17.5 3.40625 17.5 
C 2.59375 17.5 2.5 17.390625 2.5 15.390625 
L 2.5 1 
C 2.5 -0.8125 2.59375 -0.90625 3.203125 -0.90625 
C 3.703125 -0.90625 3.796875 -0.8125 4.296875 0 
C 4.90625 0.890625 6.40625 3.296875 7 4.296875 
C 9 1.59375 12.5 -1 18.09375 -1 
C 28 -1 33.296875 4.390625 33.296875 12.1875 
C 33.296875 17.296875 30.59375 20 29.296875 21.1875 
C 26.296875 24.296875 22.796875 25 18.59375 25.796875 
C 13.09375 27 6.09375 28.390625 6.09375 34.5 
C 6.09375 37.09375 7.5 42.59375 17.59375 42.59375 
C 28.296875 42.59375 28.90625 32.59375 29.09375 29.390625 
C 29.203125 28.890625 29.703125 28.796875 30 28.796875 
C 30.90625 28.796875 30.90625 29.09375 30.90625 30.796875 
z
" id="CMR17-115"/>
       <path d="M 38.09375 23.484375 
C 38.5 23.890625 38.5 24.09375 38.5 25.09375 
C 38.5 35.171875 33.09375 44 21.703125 44 
C 11.09375 44 2.703125 33.984375 2.703125 21.78125 
C 2.703125 8.65625 12.203125 -1 22.796875 -1 
C 34 -1 38.40625 9.671875 38.40625 11.796875 
C 38.40625 12.5 37.796875 12.5 37.59375 12.5 
C 36.90625 12.5 36.796875 12.296875 36.40625 11.078125 
C 34.203125 4.21875 28.703125 0.796875 23.5 0.796875 
C 19.203125 0.796875 14.90625 3.21875 12.203125 7.65625 
C 9.09375 12.796875 9.09375 18.75 9.09375 23.484375 
z
M 9.203125 25 
C 9.90625 39.234375 17.59375 42.390625 21.59375 42.390625 
C 28.40625 42.390625 33 36.0625 33.09375 25 
z
" id="CMR17-101"/>
       <path d="M 41.5 30.53125 
C 41.5 35.65625 40.5 44 28.703125 44 
C 20.796875 44 16.703125 37.875 15.203125 33.84375 
L 15.09375 33.84375 
L 15.09375 44 
L 3.296875 42.890625 
L 3.296875 40.28125 
C 9.203125 40.28125 10.09375 39.6875 10.09375 34.859375 
L 10.09375 6.921875 
C 10.09375 3.09375 9.703125 2.59375 3.296875 2.59375 
L 3.296875 0 
C 5.703125 0.1875 10.09375 0.1875 12.703125 0.1875 
C 15.296875 0.1875 19.796875 0.1875 22.203125 0 
L 22.203125 2.59375 
C 15.796875 2.59375 15.40625 3 15.40625 6.921875 
L 15.40625 26.21875 
C 15.40625 35.453125 21 42.390625 28 42.390625 
C 35.40625 42.390625 36.203125 35.765625 36.203125 30.9375 
L 36.203125 6.921875 
C 36.203125 3.09375 35.796875 2.59375 29.40625 2.59375 
L 29.40625 0 
C 31.796875 0.1875 36.203125 0.1875 38.796875 0.1875 
C 41.40625 0.1875 45.90625 0.1875 48.296875 0 
L 48.296875 2.59375 
C 41.90625 2.59375 41.5 3 41.5 6.921875 
z
" id="CMR17-110"/>
      </defs>
      <use transform="scale(0.996264)" xlink:href="#CMR17-65"/>
      <use transform="translate(69.07243 0)scale(0.996264)" xlink:href="#CMR17-97"/>
      <use transform="translate(114.762907 0)scale(0.996264)" xlink:href="#CMR17-115"/>
      <use transform="translate(150.564245 0)scale(0.996264)" xlink:href="#CMR17-101"/>
      <use transform="translate(191.049905 0)scale(0.996264)" xlink:href="#CMR17-110"/>
      <use transform="translate(272.021241 0)scale(0.996264)" xlink:href="#CMTI12-101"/>
      <use transform="translate(316.853578 0)scale(0.996264)" xlink:href="#CMTI12-116"/>
      <use transform="translate(384.102067 0)scale(0.996264)" xlink:href="#CMTI12-97"/>
      <use transform="translate(433.915739 0)scale(0.996264)" xlink:href="#CMTI12-108"/>
      <use transform="translate(458.822613 0)scale(0.996264)" xlink:href="#CMTI12-46"/>
     </g>
    </g>
    <g id="line2d_29">
     <path d="M 229.020223 164.282772 
L 257.020223 164.282772 
" style="fill:none;stroke:#000000;stroke-linecap:square;stroke-width:2.2;"/>
    </g>
    <g id="line2d_30"/>
    <g id="text_20">
     <!-- JHBV -->
     <g transform="translate(268.220223 169.182772)scale(0.14 -0.14)">
      <defs>
       <path d="M 29.5 14.09375 
C 29.5 4.9375 24.5 -0.40625 19.40625 -0.40625 
C 16.796875 -0.40625 10.796875 0.765625 8.203125 6.6875 
C 8.59375 6.59375 9.09375 6.484375 9.5 6.484375 
C 11.40625 6.484375 13.796875 7.796875 13.796875 10.796875 
C 13.796875 13.1875 12.09375 15 9.59375 15 
C 7.203125 15 5.296875 13.484375 5.296875 10.59375 
C 5.296875 3.96875 11.40625 -2 19.59375 -2 
C 27.40625 -2 34.59375 3.484375 35.796875 11.796875 
C 35.90625 12.484375 35.90625 12.6875 35.90625 16.09375 
L 35.90625 58.34375 
C 35.90625 60.0625 35.90625 62.875 36.09375 63.484375 
C 36.5 65.390625 38.796875 65.390625 41.90625 65.390625 
L 41.90625 68 
C 41.703125 68 34.59375 67.796875 32.09375 67.796875 
C 27.90625 67.796875 23.296875 67.796875 19.09375 68 
L 19.09375 65.390625 
L 21.5 65.390625 
C 29.296875 65.390625 29.5 64.28125 29.5 60.671875 
z
" id="CMR17-74"/>
       <path d="M 5.203125 68 
L 5.203125 65.390625 
C 12.09375 65.390625 13.203125 65.390625 13.203125 60.890625 
L 13.203125 7.046875 
C 13.203125 2.59375 12.09375 2.59375 5.203125 2.59375 
L 5.203125 0 
L 39.59375 0 
C 52.40625 0 60.703125 9.03125 60.703125 18.046875 
C 60.703125 26.96875 52.5 34.59375 41.796875 35.296875 
C 51.40625 37.1875 58.09375 43.59375 58.09375 51.1875 
C 58.09375 59.5 49.90625 68 37 68 
z
M 19.5 36 
L 19.5 61.5 
C 19.5 64.890625 19.703125 65.390625 23.703125 65.390625 
L 36.5 65.390625 
C 46.40625 65.390625 50.796875 57.390625 50.796875 51.1875 
C 50.796875 43.59375 44.703125 36 33.90625 36 
z
M 23.703125 2.59375 
C 19.703125 2.59375 19.5 3.09375 19.5 6.453125 
L 19.5 34.390625 
L 38 34.390625 
C 48.296875 34.390625 53.296875 25.375 53.296875 18.140625 
C 53.296875 10.90625 47.59375 2.59375 36.703125 2.59375 
z
" id="CMR17-66"/>
       <path d="M 59 58.78125 
C 59.90625 60.984375 61.5 65.296875 68.203125 65.390625 
L 68.203125 68 
C 65.90625 67.796875 63.296875 67.796875 60.796875 67.796875 
C 58.40625 67.796875 54.296875 67.796875 52 68 
L 52 65.390625 
C 57 65.09375 57.203125 61.59375 57.203125 60.984375 
C 57.203125 59.890625 56.90625 59.1875 56.59375 58.390625 
L 36.90625 7 
L 16.296875 60.984375 
C 16 61.6875 15.796875 62.1875 15.796875 62.6875 
C 15.796875 65.390625 19.796875 65.390625 21.90625 65.390625 
L 21.90625 68 
C 18.703125 67.796875 14 67.796875 10.703125 67.796875 
C 8.09375 67.796875 3.40625 67.796875 1 68 
L 1 65.390625 
C 6.796875 65.390625 7.90625 65 9.09375 61.796875 
L 32.90625 -0.40625 
C 33.40625 -1.8125 33.5 -2 34.59375 -2 
C 35.703125 -2 35.796875 -1.8125 36.296875 -0.40625 
z
" id="CMR17-86"/>
      </defs>
      <use transform="scale(0.996264)" xlink:href="#CMR17-74"/>
      <use transform="translate(46.97179 0)scale(0.996264)" xlink:href="#CMR17-72"/>
      <use transform="translate(116.04422 0)scale(0.996264)" xlink:href="#CMR17-66"/>
      <use transform="translate(181.232974 0)scale(0.996264)" xlink:href="#CMR17-86"/>
     </g>
    </g>
   </g>
  </g>
 </g>
 <defs>
  <clipPath id="p4b5f9a9c54">
   <rect height="259.2" width="345.6" x="69.12" y="41.472"/>
  </clipPath>
 </defs>
</svg>
